<mxfile host="app.diagrams.net" modified="2023-03-02T20:58:17.996Z" agent="5.0 (X11; Linux x86_64) AppleWebKit/537.36 (KHTML, like Gecko) Chrome/110.0.0.0 Safari/537.36" etag="buHKZlctWrujTgP4mGpv" version="20.8.20" type="github">
  <diagram name="Page-1" id="FIsLYuHzlU_XFJ1SP3E0">
    <mxGraphModel dx="1838" dy="520" grid="1" gridSize="10" guides="1" tooltips="1" connect="1" arrows="1" fold="1" page="1" pageScale="1" pageWidth="850" pageHeight="1100" math="0" shadow="0">
      <root>
        <mxCell id="0" />
        <mxCell id="1" parent="0" />
        <mxCell id="zBlL3TUO0Pgipew5Sboh-2" value="" style="shape=mxgraph.signs.healthcare.brain;html=1;pointerEvents=1;fillColor=#000000;strokeColor=none;verticalLabelPosition=bottom;verticalAlign=top;align=center;" parent="1" vertex="1">
          <mxGeometry x="-64" y="200" width="98" height="85" as="geometry" />
        </mxCell>
        <mxCell id="zBlL3TUO0Pgipew5Sboh-4" value="" style="shape=image;html=1;verticalAlign=top;verticalLabelPosition=bottom;labelBackgroundColor=#ffffff;imageAspect=0;aspect=fixed;image=https://cdn0.iconfinder.com/data/icons/phosphor-duotone-vol-5/256/wave-sine-duotone-128.png" parent="1" vertex="1">
          <mxGeometry x="49.5" y="200" width="75" height="75" as="geometry" />
        </mxCell>
        <mxCell id="zBlL3TUO0Pgipew5Sboh-8" value="" style="shape=image;imageAspect=0;aspect=fixed;verticalLabelPosition=bottom;verticalAlign=top;image=https://th.bing.com/th/id/OIP.oR23gtayus8NnhMo5mmxAAHaIy?pid=ImgDet&amp;rs=1;" parent="1" vertex="1">
          <mxGeometry x="220" y="120" width="52.87" height="62.62" as="geometry" />
        </mxCell>
        <mxCell id="zBlL3TUO0Pgipew5Sboh-9" value="" style="shape=image;imageAspect=0;aspect=fixed;verticalLabelPosition=bottom;verticalAlign=top;image=https://www.bci2000.org/mediawiki/images/thumb/1/16/Cyton-Daisy.jpg/500px-Cyton-Daisy.jpg;" parent="1" vertex="1">
          <mxGeometry x="143" y="200" width="60" height="80" as="geometry" />
        </mxCell>
        <mxCell id="zBlL3TUO0Pgipew5Sboh-10" value="" style="shape=image;imageAspect=0;aspect=fixed;verticalLabelPosition=bottom;verticalAlign=top;image=https://raw.githubusercontent.com/OpenBCI/Docs/master/assets/images/dongleConnection.png;clipPath=inset(27.88% 33.33% 27.88% 33.33%);" parent="1" vertex="1">
          <mxGeometry x="280" y="197.5" width="80" height="80" as="geometry" />
        </mxCell>
        <mxCell id="zBlL3TUO0Pgipew5Sboh-34" value="" style="endArrow=classic;startArrow=classic;html=1;rounded=0;fontSize=2;exitX=1;exitY=0.5;exitDx=0;exitDy=0;entryX=-0.046;entryY=0.519;entryDx=0;entryDy=0;entryPerimeter=0;" parent="1" source="zBlL3TUO0Pgipew5Sboh-9" target="zBlL3TUO0Pgipew5Sboh-10" edge="1">
          <mxGeometry width="50" height="50" relative="1" as="geometry">
            <mxPoint x="380" y="280" as="sourcePoint" />
            <mxPoint x="430" y="230" as="targetPoint" />
          </mxGeometry>
        </mxCell>
        <mxCell id="zBlL3TUO0Pgipew5Sboh-38" value="&lt;font style=&quot;font-size: 12px;&quot;&gt;Work Station&lt;/font&gt;" style="text;strokeColor=none;align=center;fillColor=none;html=1;verticalAlign=middle;whiteSpace=wrap;rounded=0;fontSize=24;fontFamily=Helvetica;" parent="1" vertex="1">
          <mxGeometry x="540" y="360" width="130" height="10" as="geometry" />
        </mxCell>
        <mxCell id="zBlL3TUO0Pgipew5Sboh-36" value="" style="group" parent="1" vertex="1" connectable="0">
          <mxGeometry x="360" y="130" width="480" height="230" as="geometry" />
        </mxCell>
        <mxCell id="zBlL3TUO0Pgipew5Sboh-17" value="" style="whiteSpace=wrap;html=1;fontSize=2;fillColor=none;sketch=0;strokeWidth=1;gradientColor=none;gradientDirection=south;strokeColor=default;labelPosition=center;verticalLabelPosition=bottom;align=center;verticalAlign=top;fontFamily=Helvetica;fontStyle=1;movable=1;resizable=1;rotatable=1;deletable=1;editable=1;connectable=1;" parent="zBlL3TUO0Pgipew5Sboh-36" vertex="1">
          <mxGeometry y="2.842170943040401e-14" width="475" height="230" as="geometry" />
        </mxCell>
        <mxCell id="zBlL3TUO0Pgipew5Sboh-18" value="" style="shape=image;imageAspect=0;aspect=fixed;verticalLabelPosition=bottom;verticalAlign=top;sketch=0;strokeColor=default;strokeWidth=1;fontSize=2;fillColor=none;gradientColor=none;gradientDirection=south;image=https://i.ytimg.com/vi/XXdEvDP4uck/maxresdefault.jpg;" parent="zBlL3TUO0Pgipew5Sboh-36" vertex="1">
          <mxGeometry x="280" width="195" height="109.88" as="geometry" />
        </mxCell>
        <mxCell id="zBlL3TUO0Pgipew5Sboh-19" value="" style="shape=image;imageAspect=0;aspect=fixed;verticalLabelPosition=bottom;verticalAlign=top;sketch=0;strokeColor=default;strokeWidth=1;fontSize=2;fillColor=none;gradientColor=none;gradientDirection=south;image=https://th.bing.com/th/id/OIP.Va9iuQ0gZJgYRTaF0SoSQgAAAA?pid=ImgDet&amp;rs=1;" parent="zBlL3TUO0Pgipew5Sboh-36" vertex="1">
          <mxGeometry x="421.59000000000003" width="53.41" height="40" as="geometry" />
        </mxCell>
        <mxCell id="zBlL3TUO0Pgipew5Sboh-27" style="edgeStyle=orthogonalEdgeStyle;rounded=0;orthogonalLoop=1;jettySize=auto;html=1;exitX=1;exitY=0.5;exitDx=0;exitDy=0;fontSize=2;" parent="zBlL3TUO0Pgipew5Sboh-36" source="zBlL3TUO0Pgipew5Sboh-25" target="zBlL3TUO0Pgipew5Sboh-18" edge="1">
          <mxGeometry relative="1" as="geometry">
            <mxPoint x="390" y="120" as="targetPoint" />
            <Array as="points">
              <mxPoint x="390" y="161" />
            </Array>
          </mxGeometry>
        </mxCell>
        <mxCell id="zBlL3TUO0Pgipew5Sboh-25" value="" style="shape=process;whiteSpace=wrap;html=1;backgroundOutline=1;sketch=0;strokeColor=default;strokeWidth=1;fontSize=2;fillColor=none;gradientColor=none;gradientDirection=south;" parent="zBlL3TUO0Pgipew5Sboh-36" vertex="1">
          <mxGeometry x="184.15999999999997" y="120.00000000000003" width="110" height="82.5" as="geometry" />
        </mxCell>
        <mxCell id="zBlL3TUO0Pgipew5Sboh-20" value="" style="shape=image;imageAspect=0;aspect=fixed;verticalLabelPosition=bottom;verticalAlign=top;sketch=0;strokeColor=default;strokeWidth=1;fontSize=2;fillColor=none;gradientColor=none;gradientDirection=south;image=https://dscl.lcsr.jhu.edu/wp-content/uploads/2017/10/ros_logo.jpeg;" parent="zBlL3TUO0Pgipew5Sboh-36" vertex="1">
          <mxGeometry x="208.3499999999999" y="123.92000000000002" width="58.29" height="15.36" as="geometry" />
        </mxCell>
        <mxCell id="zBlL3TUO0Pgipew5Sboh-26" style="edgeStyle=orthogonalEdgeStyle;rounded=0;orthogonalLoop=1;jettySize=auto;html=1;exitX=0.5;exitY=1;exitDx=0;exitDy=0;fontSize=2;" parent="zBlL3TUO0Pgipew5Sboh-36" source="zBlL3TUO0Pgipew5Sboh-22" target="zBlL3TUO0Pgipew5Sboh-25" edge="1">
          <mxGeometry relative="1" as="geometry">
            <Array as="points">
              <mxPoint x="61" y="161" />
            </Array>
          </mxGeometry>
        </mxCell>
        <mxCell id="zBlL3TUO0Pgipew5Sboh-21" value="" style="shape=image;html=1;verticalAlign=top;verticalLabelPosition=bottom;labelBackgroundColor=#ffffff;imageAspect=0;aspect=fixed;image=https://cdn0.iconfinder.com/data/icons/business-startup-10/50/69-128.png;sketch=0;strokeColor=default;strokeWidth=1;fontSize=2;fillColor=none;gradientColor=none;gradientDirection=south;" parent="zBlL3TUO0Pgipew5Sboh-36" vertex="1">
          <mxGeometry x="212.49000000000004" y="150.00000000000003" width="50" height="50" as="geometry" />
        </mxCell>
        <mxCell id="zBlL3TUO0Pgipew5Sboh-22" value="" style="shape=image;imageAspect=0;aspect=fixed;verticalLabelPosition=bottom;verticalAlign=top;sketch=0;strokeColor=default;strokeWidth=1;fontSize=2;fillColor=none;gradientColor=none;gradientDirection=south;image=https://live.staticflickr.com/65535/50910162901_86602ce394_o.jpg;" parent="zBlL3TUO0Pgipew5Sboh-36" vertex="1">
          <mxGeometry x="35.29999999999998" y="139.28000000000003" width="53.61" height="40" as="geometry" />
        </mxCell>
        <mxCell id="zBlL3TUO0Pgipew5Sboh-23" style="edgeStyle=orthogonalEdgeStyle;rounded=0;orthogonalLoop=1;jettySize=auto;html=1;exitX=0.5;exitY=1;exitDx=0;exitDy=0;entryX=0.5;entryY=0;entryDx=0;entryDy=0;fontSize=2;" parent="zBlL3TUO0Pgipew5Sboh-36" source="8Qqn8H0FfDL8_Zrk-DWg-34" target="zBlL3TUO0Pgipew5Sboh-22" edge="1">
          <mxGeometry relative="1" as="geometry">
            <mxPoint x="92.07999999999993" y="89.60000000000002" as="sourcePoint" />
          </mxGeometry>
        </mxCell>
        <mxCell id="zBlL3TUO0Pgipew5Sboh-33" value="" style="shape=image;imageAspect=0;aspect=fixed;verticalLabelPosition=bottom;verticalAlign=top;sketch=0;strokeColor=default;strokeWidth=1;fontSize=2;fillColor=none;gradientColor=none;gradientDirection=south;image=https://dscl.lcsr.jhu.edu/wp-content/uploads/2017/10/ros_logo.jpeg;" parent="zBlL3TUO0Pgipew5Sboh-36" vertex="1">
          <mxGeometry x="280" y="2.842170943040401e-14" width="36.44" height="9.6" as="geometry" />
        </mxCell>
        <mxCell id="8Qqn8H0FfDL8_Zrk-DWg-6" value="&lt;font style=&quot;font-size: 12px;&quot;&gt;BCI Classifier (ROS Node)&lt;/font&gt;" style="text;strokeColor=none;align=center;fillColor=none;html=1;verticalAlign=middle;whiteSpace=wrap;rounded=0;fontSize=24;fontFamily=Helvetica;" parent="zBlL3TUO0Pgipew5Sboh-36" vertex="1">
          <mxGeometry x="175" y="202.5" width="145" height="10" as="geometry" />
        </mxCell>
        <mxCell id="8Qqn8H0FfDL8_Zrk-DWg-7" value="&lt;font style=&quot;font-size: 12px;&quot;&gt;OpenBCI GUI&lt;/font&gt;" style="text;strokeColor=none;align=center;fillColor=none;html=1;verticalAlign=middle;whiteSpace=wrap;rounded=0;fontSize=24;fontFamily=Helvetica;" parent="zBlL3TUO0Pgipew5Sboh-36" vertex="1">
          <mxGeometry x="45" y="112.79" width="130" height="10" as="geometry" />
        </mxCell>
        <mxCell id="8Qqn8H0FfDL8_Zrk-DWg-34" value="" style="shape=image;imageAspect=0;aspect=fixed;verticalLabelPosition=bottom;verticalAlign=top;fontSize=14;image=https://ksr-ugc.imgix.net/assets/013/751/019/24d3cf86431b6ccdb67a8f8af8ec2255_original.png?w=639&amp;fit=max&amp;v=1473963284&amp;auto=format&amp;lossless=true&amp;s=0e95659618efff45191b1b22136688f1;" parent="zBlL3TUO0Pgipew5Sboh-36" vertex="1">
          <mxGeometry width="150" height="112.79" as="geometry" />
        </mxCell>
        <mxCell id="zBlL3TUO0Pgipew5Sboh-39" value="&lt;p style=&quot;line-height: 30%;&quot;&gt;&lt;span style=&quot;background-color: initial;&quot;&gt;&lt;font style=&quot;font-size: 12px;&quot;&gt;Measurements from OpenBCI headgear&lt;/font&gt;&lt;/span&gt;&lt;/p&gt;" style="text;strokeColor=none;align=center;fillColor=none;html=1;verticalAlign=middle;whiteSpace=wrap;rounded=0;fontSize=24;fontFamily=Helvetica;" parent="1" vertex="1">
          <mxGeometry x="22" y="250" width="130" height="45" as="geometry" />
        </mxCell>
        <mxCell id="8Qqn8H0FfDL8_Zrk-DWg-2" value="&lt;p style=&quot;line-height: 20%;&quot;&gt;&lt;font style=&quot;font-size: 12px;&quot;&gt;Serial &lt;br&gt;communication&lt;/font&gt;&lt;/p&gt;" style="text;strokeColor=none;align=center;fillColor=none;html=1;verticalAlign=middle;whiteSpace=wrap;rounded=0;fontSize=24;fontFamily=Helvetica;" parent="1" vertex="1">
          <mxGeometry x="178" y="250" width="130" height="30" as="geometry" />
        </mxCell>
        <mxCell id="8Qqn8H0FfDL8_Zrk-DWg-38" value="" style="shape=image;html=1;verticalAlign=top;verticalLabelPosition=bottom;labelBackgroundColor=#ffffff;imageAspect=0;aspect=fixed;image=https://cdn4.iconfinder.com/data/icons/ionicons/512/icon-eye-128.png;fontSize=14;" parent="1" vertex="1">
          <mxGeometry x="-70" y="282.5" width="55" height="55" as="geometry" />
        </mxCell>
        <mxCell id="8Qqn8H0FfDL8_Zrk-DWg-39" value="" style="shape=image;html=1;verticalAlign=top;verticalLabelPosition=bottom;labelBackgroundColor=#ffffff;imageAspect=0;aspect=fixed;image=https://cdn4.iconfinder.com/data/icons/ionicons/512/icon-eye-128.png;fontSize=14;" parent="1" vertex="1">
          <mxGeometry x="-15" y="282.5" width="55" height="55" as="geometry" />
        </mxCell>
        <mxCell id="8Qqn8H0FfDL8_Zrk-DWg-41" style="edgeStyle=orthogonalEdgeStyle;rounded=0;orthogonalLoop=1;jettySize=auto;html=1;fontSize=14;" parent="1" source="zBlL3TUO0Pgipew5Sboh-18" edge="1">
          <mxGeometry relative="1" as="geometry">
            <mxPoint x="-10" y="340" as="targetPoint" />
            <Array as="points">
              <mxPoint x="850" y="178" />
              <mxPoint x="850" y="410" />
              <mxPoint x="-10" y="410" />
            </Array>
          </mxGeometry>
        </mxCell>
        <mxCell id="8Qqn8H0FfDL8_Zrk-DWg-42" value="&lt;p style=&quot;line-height: 20%;&quot;&gt;&lt;span style=&quot;font-size: 10px;&quot;&gt;Visual Feedback&lt;/span&gt;&lt;/p&gt;" style="text;strokeColor=none;align=center;fillColor=none;html=1;verticalAlign=middle;whiteSpace=wrap;rounded=0;fontSize=24;fontFamily=Helvetica;" parent="1" vertex="1">
          <mxGeometry x="320" y="420" width="130" height="10" as="geometry" />
        </mxCell>
      </root>
    </mxGraphModel>
  </diagram>
</mxfile>
